<mxfile host="65bd71144e">
    <diagram id="As4VHvAy88P-Q-AwDKeE" name="Page-1">
        <mxGraphModel dx="944" dy="1349" grid="1" gridSize="10" guides="1" tooltips="1" connect="1" arrows="1" fold="1" page="1" pageScale="1" pageWidth="850" pageHeight="1100" math="0" shadow="0">
            <root>
                <mxCell id="0"/>
                <mxCell id="1" parent="0"/>
                <mxCell id="2" value="inicio" style="rounded=1;whiteSpace=wrap;html=1;" parent="1" vertex="1">
                    <mxGeometry x="340" y="-1100" width="120" height="60" as="geometry"/>
                </mxCell>
                <mxCell id="3" value="tiempo en segundos" style="shape=parallelogram;perimeter=parallelogramPerimeter;whiteSpace=wrap;html=1;fixedSize=1;" parent="1" vertex="1">
                    <mxGeometry x="330" y="-830" width="160" height="70" as="geometry"/>
                </mxCell>
                <mxCell id="4" value="&quot;ingrese&quot; tiempo en segundos" style="shape=display;whiteSpace=wrap;html=1;" parent="1" vertex="1">
                    <mxGeometry x="340" y="-970" width="140" height="80" as="geometry"/>
                </mxCell>
                <mxCell id="5" value="tiempo en segundos&amp;lt;600segundos" style="rhombus;whiteSpace=wrap;html=1;" parent="1" vertex="1">
                    <mxGeometry x="325" y="-690" width="170" height="180" as="geometry"/>
                </mxCell>
                <mxCell id="6" value="faltan=600 segundos-tiempo en segundos" style="rounded=0;whiteSpace=wrap;html=1;" parent="1" vertex="1">
                    <mxGeometry x="600" y="-665" width="230" height="90" as="geometry"/>
                </mxCell>
                <mxCell id="7" value="&quot;mayor&quot;" style="shape=display;whiteSpace=wrap;html=1;" parent="1" vertex="1">
                    <mxGeometry x="10" y="-680" width="230" height="100" as="geometry"/>
                </mxCell>
                <mxCell id="8" value="faltan" style="shape=display;whiteSpace=wrap;html=1;" parent="1" vertex="1">
                    <mxGeometry x="640" y="-480" width="110" height="60" as="geometry"/>
                </mxCell>
                <mxCell id="10" value="verdadero" style="text;html=1;strokeColor=none;fillColor=none;align=center;verticalAlign=middle;whiteSpace=wrap;rounded=0;" parent="1" vertex="1">
                    <mxGeometry x="500" y="-680" width="60" height="30" as="geometry"/>
                </mxCell>
                <mxCell id="11" value="falso" style="text;html=1;strokeColor=none;fillColor=none;align=center;verticalAlign=middle;whiteSpace=wrap;rounded=0;" parent="1" vertex="1">
                    <mxGeometry x="280" y="-680" width="60" height="30" as="geometry"/>
                </mxCell>
                <mxCell id="12" value="" style="endArrow=classic;html=1;elbow=vertical;" parent="1" edge="1">
                    <mxGeometry width="50" height="50" relative="1" as="geometry">
                        <mxPoint x="409.5" y="-890" as="sourcePoint"/>
                        <mxPoint x="409.5" y="-830" as="targetPoint"/>
                    </mxGeometry>
                </mxCell>
                <mxCell id="13" value="" style="endArrow=classic;html=1;elbow=vertical;entryX=0;entryY=0;entryDx=0;entryDy=0;" parent="1" target="9" edge="1">
                    <mxGeometry width="50" height="50" relative="1" as="geometry">
                        <mxPoint x="130" y="-575" as="sourcePoint"/>
                        <mxPoint x="320" y="-380" as="targetPoint"/>
                    </mxGeometry>
                </mxCell>
                <mxCell id="14" value="" style="endArrow=classic;html=1;elbow=vertical;startArrow=none;" parent="1" source="9" edge="1">
                    <mxGeometry width="50" height="50" relative="1" as="geometry">
                        <mxPoint x="320" y="-420" as="sourcePoint"/>
                        <mxPoint x="360" y="-360" as="targetPoint"/>
                    </mxGeometry>
                </mxCell>
                <mxCell id="15" value="" style="endArrow=classic;html=1;elbow=vertical;entryX=0.5;entryY=0;entryDx=0;entryDy=0;" parent="1" target="5" edge="1">
                    <mxGeometry width="50" height="50" relative="1" as="geometry">
                        <mxPoint x="405" y="-760" as="sourcePoint"/>
                        <mxPoint x="405" y="-700" as="targetPoint"/>
                    </mxGeometry>
                </mxCell>
                <mxCell id="16" value="" style="endArrow=classic;html=1;elbow=vertical;" parent="1" edge="1">
                    <mxGeometry width="50" height="50" relative="1" as="geometry">
                        <mxPoint x="700" y="-560" as="sourcePoint"/>
                        <mxPoint x="700" y="-490" as="targetPoint"/>
                        <Array as="points">
                            <mxPoint x="700" y="-520"/>
                        </Array>
                    </mxGeometry>
                </mxCell>
                <mxCell id="17" value="" style="endArrow=classic;html=1;elbow=vertical;entryX=0;entryY=0;entryDx=67.5;entryDy=0;entryPerimeter=0;" parent="1" target="4" edge="1">
                    <mxGeometry width="50" height="50" relative="1" as="geometry">
                        <mxPoint x="405" y="-1040" as="sourcePoint"/>
                        <mxPoint x="445" y="-980" as="targetPoint"/>
                        <Array as="points"/>
                    </mxGeometry>
                </mxCell>
                <mxCell id="18" value="" style="endArrow=classic;html=1;elbow=vertical;entryX=0.994;entryY=0.44;entryDx=0;entryDy=0;entryPerimeter=0;exitX=0;exitY=0;exitDx=0;exitDy=0;" parent="1" source="5" target="7" edge="1">
                    <mxGeometry width="50" height="50" relative="1" as="geometry">
                        <mxPoint x="360" y="-650" as="sourcePoint"/>
                        <mxPoint x="340" y="-620" as="targetPoint"/>
                    </mxGeometry>
                </mxCell>
                <mxCell id="19" value="" style="endArrow=classic;html=1;elbow=vertical;exitX=0.711;exitY=0.216;exitDx=0;exitDy=0;exitPerimeter=0;" parent="1" source="5" edge="1">
                    <mxGeometry width="50" height="50" relative="1" as="geometry">
                        <mxPoint x="470" y="-660" as="sourcePoint"/>
                        <mxPoint x="600" y="-630" as="targetPoint"/>
                    </mxGeometry>
                </mxCell>
                <mxCell id="9" value="fin" style="rounded=1;whiteSpace=wrap;html=1;" parent="1" vertex="1">
                    <mxGeometry x="320" y="-370" width="120" height="60" as="geometry"/>
                </mxCell>
                <mxCell id="21" value="" style="endArrow=classic;html=1;elbow=vertical;entryX=1.028;entryY=0.127;entryDx=0;entryDy=0;entryPerimeter=0;" parent="1" target="9" edge="1">
                    <mxGeometry width="50" height="50" relative="1" as="geometry">
                        <mxPoint x="690" y="-420" as="sourcePoint"/>
                        <mxPoint x="730" y="-360" as="targetPoint"/>
                    </mxGeometry>
                </mxCell>
            </root>
        </mxGraphModel>
    </diagram>
</mxfile>